<svg width="30" height="29" viewBox="0 0 30 29" fill="none" xmlns="http://www.w3.org/2000/svg">
<rect x="1.5" y="1" width="27" height="27" rx="4" fill="white" stroke="#363B4E" stroke-width="2"/>
<g clip-path="url(#clip0_9776_1963)">
<path d="M21.5 10.3333C20.7044 10.3333 19.9413 9.9997 19.3787 9.40584C18.8161 8.81197 18.5 8.00652 18.5 7.16667C18.5 6.32681 18.8161 5.52136 19.3787 4.9275C19.9413 4.33363 20.7044 4 21.5 4C22.2956 4 23.0587 4.33363 23.6213 4.9275C24.1839 5.52136 24.5 6.32681 24.5 7.16667C24.5 8.00652 24.1839 8.81197 23.6213 9.40584C23.0587 9.9997 22.2956 10.3333 21.5 10.3333ZM21.5 5.58333C21.1022 5.58333 20.7206 5.75015 20.4393 6.04708C20.158 6.34401 20 6.74674 20 7.16667C20 7.58659 20.158 7.98932 20.4393 8.28625C20.7206 8.58319 21.1022 8.75 21.5 8.75C21.8978 8.75 22.2794 8.58319 22.5607 8.28625C22.842 7.98932 23 7.58659 23 7.16667C23 6.74674 22.842 6.34401 22.5607 6.04708C22.2794 5.75015 21.8978 5.58333 21.5 5.58333ZM14.75 23V22.035L17.9578 14.6384C18.1077 14.3058 18.344 14.0248 18.6391 13.8281C18.9341 13.6314 19.276 13.527 19.625 13.527C19.974 13.527 20.3159 13.6314 20.6109 13.8281C20.906 14.0248 21.1423 14.3058 21.2922 14.6384L24.5 22.0001V22.9652L14.75 23ZM16.655 21.4167H22.595L19.9295 15.3003C19.9039 15.2374 19.8614 15.1839 19.8073 15.1463C19.7532 15.1087 19.6898 15.0887 19.625 15.0887C19.5602 15.0887 19.4968 15.1087 19.4427 15.1463C19.3886 15.1839 19.3461 15.2374 19.3205 15.3003L16.655 21.4167ZM15.686 9.17829C15.5241 8.81803 15.2686 8.51366 14.9493 8.30054C14.63 8.08742 14.26 7.97428 13.8823 7.97428C13.5045 7.97428 13.1345 8.08742 12.8152 8.30054C12.4959 8.51366 12.2404 8.81803 12.0785 9.17829L6.5 22.035V23H12.5C13.5 23 13.6206 22.5 13.5 22C13.3794 21.5 13 21.4167 12.5 21.4167H8.396L13.4412 9.84013C13.4801 9.75109 13.5424 9.67567 13.6206 9.62281C13.6988 9.56995 13.7897 9.54186 13.8826 9.54186C13.9755 9.54186 14.0664 9.56995 14.1447 9.62281C14.2229 9.67567 14.2851 9.75109 14.324 9.84013L15.9319 13.527C16.1996 14.237 16.7631 14.1097 17 14C17.3711 13.8281 17.5 13.5 17.3142 12.911L15.686 9.17829Z" fill="#363B4E"/>
</g>
<defs>
<clipPath id="clip0_9776_1963">
<rect width="18" height="19" fill="white" transform="translate(6.5 4)"/>
</clipPath>
</defs>
</svg>
