<svg width="135" height="119" viewBox="0 0 135 119" fill="none" xmlns="http://www.w3.org/2000/svg">
<g filter="url(#filter0_d_11286_2054)">
<path fill-rule="evenodd" clip-rule="evenodd" d="M125.364 6.48931C125.364 5.93347 124.917 5.48582 124.362 5.50034C120.661 5.59706 107.344 6.14093 95.071 9.08647C82.0161 12.2196 70.7334 21.2996 65.4999 25.8477C60.2665 21.2996 48.9838 12.2197 35.9288 9.08648C23.6558 6.14094 10.3385 5.59708 6.63805 5.50036C6.0824 5.48584 5.63599 5.93348 5.63599 6.48932V91.7525C5.63599 92.3048 6.07266 92.7538 6.62489 92.7621C10.6107 92.8219 25.9686 93.2527 40.2564 96.3588C51.7006 98.8466 59.1106 104.39 64.0569 108.421V108.703C64.0569 109.473 64.8666 109.924 65.4999 109.582C66.1332 109.924 66.943 109.473 66.943 108.703V108.421C71.8892 104.39 79.2993 98.8466 90.7434 96.3588C105.031 93.2527 120.389 92.8219 124.375 92.7621C124.927 92.7538 125.364 92.3047 125.364 91.7525V6.48931Z" fill="#FAFCFF"/>
<path d="M124.362 5.50034L124.296 3.0012L124.362 5.50034ZM95.071 9.08647L94.4876 6.6555V6.6555L95.071 9.08647ZM65.4999 25.8477L63.86 27.7347L65.4999 29.1599L67.1398 27.7347L65.4999 25.8477ZM35.9288 9.08648L35.3454 11.5174L35.9288 9.08648ZM6.63805 5.50036L6.57273 7.9995L6.63805 5.50036ZM6.62489 92.7621L6.66237 90.2624H6.66236L6.62489 92.7621ZM40.2564 96.3588L39.7253 98.8017L40.2564 96.3588ZM64.0569 108.421H66.5569V107.234L65.6363 106.483L64.0569 108.421ZM65.4999 109.582L66.6887 107.383L65.4999 106.74L64.3112 107.383L65.4999 109.582ZM66.943 108.421L65.3635 106.483L64.443 107.234V108.421H66.943ZM90.7434 96.3588L91.2745 98.8017L90.7434 96.3588ZM124.375 92.7621L124.412 95.2618H124.412L124.375 92.7621ZM124.427 7.99949C123.534 8.02282 122.864 7.2968 122.864 6.48931H127.864C127.864 4.57013 126.301 2.94882 124.296 3.0012L124.427 7.99949ZM95.6544 11.5174C107.664 8.63506 120.768 8.09513 124.427 7.99949L124.296 3.0012C120.555 3.099 107.024 3.6468 94.4876 6.6555L95.6544 11.5174ZM67.1398 27.7347C72.3403 23.2153 83.2318 14.4989 95.6544 11.5174L94.4876 6.6555C80.8003 9.94043 69.1264 19.384 63.86 23.9607L67.1398 27.7347ZM67.1398 23.9607C61.8734 19.384 50.1995 9.94045 36.5123 6.65551L35.3454 11.5174C47.768 14.4989 58.6595 23.2153 63.86 27.7347L67.1398 23.9607ZM36.5123 6.65551C23.976 3.64681 10.4452 3.09901 6.70337 3.00121L6.57273 7.9995C10.2318 8.09514 23.3355 8.63507 35.3454 11.5174L36.5123 6.65551ZM6.70337 3.00121C4.69934 2.94883 3.13599 4.57014 3.13599 6.48932H8.13599C8.13599 7.29682 7.46546 8.02284 6.57273 7.9995L6.70337 3.00121ZM3.13599 6.48932V91.7525H8.13599V6.48932H3.13599ZM3.13599 91.7525C3.13599 93.6522 4.65066 95.2328 6.58742 95.2618L6.66236 90.2624C7.49467 90.2749 8.13599 90.9573 8.13599 91.7525H3.13599ZM6.5874 95.2618C10.5338 95.321 25.6888 95.7503 39.7253 98.8017L40.7875 93.9158C26.2484 90.7551 10.6876 90.3227 6.66237 90.2624L6.5874 95.2618ZM39.7253 98.8017C50.5981 101.165 57.6413 106.417 62.4774 110.359L65.6363 106.483C60.58 102.362 52.8031 96.5279 40.7875 93.9158L39.7253 98.8017ZM66.5569 108.703V108.421H61.5569V108.703H66.5569ZM64.3112 107.383C65.3194 106.838 66.5569 107.552 66.5569 108.703H61.5569C61.5569 111.393 64.4137 113.011 66.6887 111.781L64.3112 107.383ZM64.3111 111.781C66.586 113.011 69.443 111.393 69.443 108.703H64.443C64.443 107.552 65.6805 106.838 66.6887 107.383L64.3111 111.781ZM69.443 108.703V108.421H64.443V108.703H69.443ZM90.2124 93.9158C78.1967 96.5279 70.4198 102.362 65.3635 106.483L68.5224 110.359C73.3586 106.417 80.4018 101.165 91.2745 98.8017L90.2124 93.9158ZM124.337 90.2624C120.312 90.3227 104.751 90.7551 90.2124 93.9158L91.2745 98.8017C105.311 95.7503 120.466 95.321 124.412 95.2618L124.337 90.2624ZM122.864 91.7525C122.864 90.9573 123.505 90.2749 124.337 90.2624L124.412 95.2618C126.349 95.2327 127.864 93.6522 127.864 91.7525H122.864ZM122.864 6.48931V91.7525H127.864V6.48931H122.864Z" fill="#363B4E"/>
<path d="M65.4998 24.9517L65.4998 108.617" stroke="#363B4E" stroke-width="5"/>
</g>
<defs>
<filter id="filter0_d_11286_2054" x="0.835986" y="0.7" width="133.328" height="117.8" filterUnits="userSpaceOnUse" color-interpolation-filters="sRGB">
<feFlood flood-opacity="0" result="BackgroundImageFix"/>
<feColorMatrix in="SourceAlpha" type="matrix" values="0 0 0 0 0 0 0 0 0 0 0 0 0 0 0 0 0 0 127 0" result="hardAlpha"/>
<feMorphology radius="3" operator="erode" in="SourceAlpha" result="effect1_dropShadow_11286_2054"/>
<feOffset dx="2" dy="2"/>
<feGaussianBlur stdDeviation="3.65"/>
<feColorMatrix type="matrix" values="0 0 0 0 0.718831 0 0 0 0 0.718831 0 0 0 0 0.718831 0 0 0 1 0"/>
<feBlend mode="normal" in2="BackgroundImageFix" result="effect1_dropShadow_11286_2054"/>
<feBlend mode="normal" in="SourceGraphic" in2="effect1_dropShadow_11286_2054" result="shape"/>
</filter>
</defs>
</svg>
