<svg xmlns="http://www.w3.org/2000/svg" width="10" height="10" viewBox="0 0 10 10" fill="none">
  <path d="M9.78039 0.21959C9.63974 0.0789867 9.44901 0 9.25013 0C9.05126 0 8.86053 0.0789867 8.71988 0.21959L5.28038 3.65909L1.84088 0.21959C1.70024 0.0789867 1.5095 0 1.31063 0C1.11176 0 0.921027 0.0789867 0.780381 0.21959C0.639778 0.360236 0.560791 0.550967 0.560791 0.74984C0.560791 0.948713 0.639778 1.13944 0.780381 1.28009L4.21988 4.71959L0.780381 8.15909C0.639778 8.29974 0.560791 8.49047 0.560791 8.68934C0.560791 8.88822 0.639778 9.07895 0.780381 9.21959C0.921027 9.3602 1.11176 9.43918 1.31063 9.43918C1.5095 9.43918 1.70024 9.3602 1.84088 9.21959L5.28038 5.78009L8.71988 9.21959C8.86053 9.3602 9.05126 9.43918 9.25013 9.43918C9.44901 9.43918 9.63974 9.3602 9.78039 9.21959C9.92099 9.07895 9.99997 8.88822 9.99997 8.68934C9.99997 8.49047 9.92099 8.29974 9.78039 8.15909L6.34088 4.71959L9.78039 1.28009C9.92099 1.13944 9.99997 0.948713 9.99997 0.74984C9.99997 0.550967 9.92099 0.360236 9.78039 0.21959Z" fill="black"/>
</svg>