<svg width="20" height="20" viewBox="0 0 20 20" fill="none" xmlns="http://www.w3.org/2000/svg">
<path fill-rule="evenodd" clip-rule="evenodd" d="M4.44431 1.6853C6.0888 0.586489 8.0222 0 10 0C12.6513 0.00286756 15.1932 1.05736 17.0679 2.93209C18.9427 4.80683 19.9972 7.3487 20 9.99998C20 11.9778 19.4135 13.9112 18.3147 15.5557C17.2159 17.2002 15.6541 18.4819 13.8269 19.2388C11.9996 19.9956 9.98892 20.1937 8.04911 19.8078C6.1093 19.422 4.32747 18.4696 2.92894 17.071C1.53041 15.6725 0.578004 13.8907 0.192152 11.9509C-0.193701 10.0111 0.00433286 8.00041 0.76121 6.17316C1.51809 4.3459 2.79981 2.78411 4.44431 1.6853ZM5.37026 16.9289C6.74067 17.8446 8.35184 18.3333 10 18.3333C12.2094 18.3309 14.3276 17.4521 15.8899 15.8899C17.4522 14.3276 18.3309 12.2094 18.3334 9.99998C18.3334 8.35181 17.8446 6.74065 16.9289 5.37024C16.0133 3.99983 14.7118 2.93173 13.189 2.301C11.6663 1.67027 9.99077 1.50524 8.37426 1.82679C6.75775 2.14833 5.27289 2.942 4.10745 4.10744C2.94201 5.27287 2.14834 6.75773 1.8268 8.37424C1.50525 9.99074 1.67028 11.6663 2.30101 13.189C2.93174 14.7117 3.99985 16.0132 5.37026 16.9289ZM12.7443 6.42252C12.9653 6.42252 13.1772 6.51028 13.3335 6.66651C13.4897 6.82278 13.5775 7.0347 13.5775 7.25567C13.5775 7.47664 13.4897 7.68857 13.3335 7.84484L11.1785 9.99984L13.3335 12.1548C13.4853 12.312 13.5693 12.5225 13.5674 12.741C13.5655 12.9595 13.4778 13.1685 13.3233 13.323C13.1688 13.4775 12.9598 13.5652 12.7413 13.5671C12.5228 13.569 12.3123 13.485 12.1551 13.3332L10.0001 11.1782L7.84514 13.3332C7.68797 13.485 7.47747 13.569 7.25897 13.5671C7.04047 13.5652 6.83146 13.4775 6.67696 13.323C6.52245 13.1685 6.43481 12.9595 6.43291 12.741C6.43101 12.5225 6.51501 12.312 6.66681 12.1548L8.82181 9.99984L6.66681 7.84484C6.51501 7.68767 6.43101 7.47717 6.43291 7.25867C6.43481 7.04018 6.52245 6.83117 6.67696 6.67666C6.83146 6.52215 7.04047 6.43451 7.25897 6.43261C7.47747 6.43071 7.68797 6.51471 7.84514 6.66651L10.0001 8.82151L12.1551 6.66651C12.3114 6.51028 12.5233 6.42252 12.7443 6.42252Z" fill="#D7D6D6"/>
</svg>
