<svg width="17" height="12" viewBox="0 0 17 12" fill="none" xmlns="http://www.w3.org/2000/svg">
<g filter="url(#filter0_d_5033_1616)">
<path d="M0 4C0 1.79086 1.79086 0 4 0H13C15.2091 0 17 1.79086 17 4V8C17 10.2091 15.2091 12 13 12H4C1.79086 12 0 10.2091 0 8V4Z" fill="white"/>
<path d="M1 4C1 2.34315 2.34315 1 4 1H13C14.6569 1 16 2.34315 16 4V8C16 9.65685 14.6569 11 13 11H4C2.34315 11 1 9.65685 1 8V4Z" stroke="#D7D6D6" stroke-width="2"/>
</g>
<path d="M0 4C0 1.79086 1.79086 0 4 0H13C15.2091 0 17 1.79086 17 4V4.65517H0V4Z" fill="#D7D6D6"/>
<defs>
<filter id="filter0_d_5033_1616" x="0" y="0" width="17" height="12" filterUnits="userSpaceOnUse" color-interpolation-filters="sRGB">
<feFlood flood-opacity="0" result="BackgroundImageFix"/>
<feColorMatrix in="SourceAlpha" type="matrix" values="0 0 0 0 0 0 0 0 0 0 0 0 0 0 0 0 0 0 127 0" result="hardAlpha"/>
<feOffset/>
<feComposite in2="hardAlpha" operator="out"/>
<feColorMatrix type="matrix" values="0 0 0 0 1 0 0 0 0 1 0 0 0 0 1 0 0 0 1 0"/>
<feBlend mode="normal" in2="BackgroundImageFix" result="effect1_dropShadow_5033_1616"/>
<feBlend mode="normal" in="SourceGraphic" in2="effect1_dropShadow_5033_1616" result="shape"/>
</filter>
</defs>
</svg>
