<svg xmlns="http://www.w3.org/2000/svg" width="14" height="15" viewBox="0 0 14 15" fill="none">
  <path d="M12.7219 2.045L11.2944 0.570625C11.1191 0.390603 10.9096 0.2474 10.6782 0.149413C10.4468 0.0514265 10.1982 0.000629019 9.94688 0L7 0C6.27987 0.000909077 5.58208 0.250056 5.02422 0.705449C4.46636 1.16084 4.08256 1.79463 3.9375 2.5H3.875C3.0465 2.50099 2.25222 2.83055 1.66639 3.41639C1.08055 4.00222 0.750992 4.7965 0.75 5.625V11.875C0.750992 12.7035 1.08055 13.4978 1.66639 14.0836C2.25222 14.6694 3.0465 14.999 3.875 15H7.625C8.4535 14.999 9.24778 14.6694 9.83362 14.0836C10.4195 13.4978 10.749 12.7035 10.75 11.875V11.8125C11.4554 11.6674 12.0892 11.2836 12.5446 10.7258C12.9999 10.1679 13.2491 9.47013 13.25 8.75V3.35C13.2509 2.86276 13.0614 2.39445 12.7219 2.045ZM7.625 13.75H3.875C3.37772 13.75 2.90081 13.5525 2.54918 13.2008C2.19754 12.8492 2 12.3723 2 11.875V5.625C2 5.12772 2.19754 4.6508 2.54918 4.29917C2.90081 3.94754 3.37772 3.75 3.875 3.75V8.75C3.87599 9.57849 4.20555 10.3728 4.79139 10.9586C5.37722 11.5444 6.1715 11.874 7 11.875H9.5C9.5 12.3723 9.30246 12.8492 8.95083 13.2008C8.5992 13.5525 8.12228 13.75 7.625 13.75ZM10.125 10.625H7C6.50272 10.625 6.02581 10.4275 5.67418 10.0758C5.32255 9.72419 5.125 9.24728 5.125 8.75V3.125C5.125 2.62772 5.32255 2.1508 5.67418 1.79917C6.02581 1.44754 6.50272 1.25 7 1.25H9.5V2.5C9.5 2.83152 9.6317 3.14946 9.86612 3.38388C10.1005 3.6183 10.4185 3.75 10.75 3.75H12V8.75C12 9.24728 11.8025 9.72419 11.4508 10.0758C11.0992 10.4275 10.6223 10.625 10.125 10.625Z" fill="#363B4E"/>
</svg>