<svg xmlns="http://www.w3.org/2000/svg" width="14" height="15" viewBox="0 0 14 15" fill="none">
  <path d="M13.25 2.83333H10.125V1.66667C10.125 1.35725 9.9933 1.0605 9.75888 0.841709C9.52446 0.622916 9.20652 0.5 8.875 0.5H5.125C4.79348 0.5 4.47554 0.622916 4.24112 0.841709C4.0067 1.0605 3.875 1.35725 3.875 1.66667V2.83333H0.75V4H2V12.75C2 13.2141 2.19754 13.6592 2.54917 13.9874C2.90081 14.3156 3.37772 14.5 3.875 14.5H10.125C10.6223 14.5 11.0992 14.3156 11.4508 13.9874C11.8025 13.6592 12 13.2141 12 12.75V4H13.25V2.83333ZM5.125 1.66667H8.875V2.83333H5.125V1.66667ZM10.75 12.75C10.75 12.9047 10.6842 13.0531 10.5669 13.1625C10.4497 13.2719 10.2908 13.3333 10.125 13.3333H3.875C3.70924 13.3333 3.55027 13.2719 3.43306 13.1625C3.31585 13.0531 3.25 12.9047 3.25 12.75V4H10.75V12.75Z" fill="#ED3131"/>
  <path d="M6.375 6.3335H5.125V11.0002H6.375V6.3335Z" fill="#ED3131"/>
  <path d="M8.875 6.3335H7.625V11.0002H8.875V6.3335Z" fill="#ED3131"/>
</svg>