<svg width="17" height="15" viewBox="0 0 17 15" fill="none" xmlns="http://www.w3.org/2000/svg">
<g filter="url(#filter0_d_3195_1536)">
<path d="M0 4C0 1.79086 1.79086 0 4 0H13C15.2091 0 17 1.79086 17 4V11C17 13.2091 15.2091 15 13 15H4C1.79086 15 0 13.2091 0 11V4Z" fill="white"/>
<path d="M1 4C1 2.34315 2.34315 1 4 1H13C14.6569 1 16 2.34315 16 4V11C16 12.6569 14.6569 14 13 14H4C2.34315 14 1 12.6569 1 11V4Z" stroke="#363B4E" stroke-width="2"/>
</g>
<path d="M0 4C0 1.79086 1.79086 0 4 0H13C15.2091 0 17 1.79086 17 4V4.65517H0V4Z" fill="#363B4E"/>
<defs>
<filter id="filter0_d_3195_1536" x="0" y="0" width="17" height="15" filterUnits="userSpaceOnUse" color-interpolation-filters="sRGB">
<feFlood flood-opacity="0" result="BackgroundImageFix"/>
<feColorMatrix in="SourceAlpha" type="matrix" values="0 0 0 0 0 0 0 0 0 0 0 0 0 0 0 0 0 0 127 0" result="hardAlpha"/>
<feOffset/>
<feComposite in2="hardAlpha" operator="out"/>
<feColorMatrix type="matrix" values="0 0 0 0 1 0 0 0 0 1 0 0 0 0 1 0 0 0 1 0"/>
<feBlend mode="normal" in2="BackgroundImageFix" result="effect1_dropShadow_3195_1536"/>
<feBlend mode="normal" in="SourceGraphic" in2="effect1_dropShadow_3195_1536" result="shape"/>
</filter>
</defs>
</svg>
