<svg width="13" height="13" viewBox="0 0 13 13" fill="none" xmlns="http://www.w3.org/2000/svg">
<path fill-rule="evenodd" clip-rule="evenodd" d="M12.74 6.64725C12.74 6.18647 12.6988 5.74375 12.6216 5.31836H6.5V7.83241H9.99844C9.92604 8.23007 9.77377 8.60892 9.55083 8.94606C9.32788 9.28321 9.0389 9.57166 8.70133 9.79397V11.4255H10.8016C12.0308 10.2937 12.74 8.62686 12.74 6.64725Z" fill="#4285F4"/>
<path fill-rule="evenodd" clip-rule="evenodd" d="M6.49999 12.9999C8.25499 12.9999 9.72615 12.4177 10.8015 11.4254L8.70132 9.79392C8.11921 10.1839 7.3746 10.415 6.49999 10.415C4.8071 10.415 3.37422 9.27103 2.86288 7.73486H0.691162V9.41908C1.23207 10.4959 2.06181 11.4011 3.08763 12.0335C4.11345 12.6658 5.29493 13.0004 6.49999 12.9999Z" fill="#34A853"/>
<path fill-rule="evenodd" clip-rule="evenodd" d="M2.86289 7.73478C2.72907 7.33674 2.6603 6.91972 2.65922 6.49979C2.65922 6.07151 2.73289 5.65479 2.86289 5.26479V3.58057H0.691167C0.236207 4.4864 -0.000490865 5.48612 7.64282e-07 6.49979C7.64282e-07 7.54845 0.251334 8.54151 0.691167 9.41901L2.86289 7.73478Z" fill="#FBBC05"/>
<path fill-rule="evenodd" clip-rule="evenodd" d="M6.49999 2.58555C7.45405 2.58555 8.31132 2.91344 8.98443 3.55694L10.8492 1.69361C9.72327 0.6435 8.2521 7.026e-07 6.49999 7.026e-07C5.29493 -0.000559624 4.11345 0.334038 3.08763 0.966391C2.06181 1.59874 1.23207 2.50393 0.691162 3.58078L2.86288 5.265C3.37422 3.72883 4.8071 2.58555 6.49999 2.58555Z" fill="#EA4335"/>
</svg>
