<svg width="36" height="28" viewBox="0 0 36 28" fill="none" xmlns="http://www.w3.org/2000/svg">
<path d="M18.6538 27C18.6538 27 14.1292 25.0816 9.16 25.0816C5.71171 25.0816 3.80199 25.6975 2.48263 26.2881C1.77844 26.6034 1 26.1262 1 25.3547V3.67564C1 3.22245 1.28783 2.81984 1.70785 2.64966C3.36912 1.97657 5.29763 1 9.16 1C13.58 1 16.8013 2.27891 18.6538 2.91837M18.6538 27C18.6538 27 21.74 25.0816 26.84 25.0816C29.5097 25.0816 31.4412 25.4321 32.7696 25.8578C33.6656 26.145 35 25.4144 35 24.4735V3.55234C35 3.1653 34.7762 2.81367 34.4183 2.66656C33.9402 2.47009 33.194 2.18447 32.28 1.905C30.7728 1.44413 28.8094 1 26.84 1C22.7469 1 20.5064 2.27891 18.6538 2.91837M18.6538 27V2.91837M26.5 1.00297C26.5 4.1138 26.5 8.96875 26.5 8.96875L28.625 7.80966L30.75 8.96875V1.49156" stroke="#353535" stroke-width="2"/>
</svg>
