<svg width="20" height="16" viewBox="0 0 20 16" fill="none" xmlns="http://www.w3.org/2000/svg">
<path d="M10.3462 15C10.3462 15 7.95077 13.967 5.32 13.967C2.68923 13.967 1.75 14.6557 1 15V13.967V4.05128V2.03297C1.98077 1.68865 2.98 1 5.32 1C7.66 1 9.36538 1.68865 10.3462 2.03297M10.3462 15C10.3462 15 11.98 13.967 14.68 13.967C17.38 13.967 18.6538 14.6557 19 15C19 10.9516 19 8.2894 19 4.94872M10.3462 15V2.03297M19 2.03297C19 2.03297 19 3.18526 19 4.94872M19 2.03297V4.94872M19 2.03297C19 2.03297 18.4204 1.7549 17.56 1.48731C16.7621 1.23915 15.7226 1 14.68 1C12.5131 1 11.3269 1.68865 10.3462 2.03297" stroke="#363B4E" stroke-linejoin="round"/>
</svg>
