<svg width="34" height="27" viewBox="0 0 34 27" fill="none" xmlns="http://www.w3.org/2000/svg">
<path d="M17.6154 25.4706C17.6154 25.4706 13.3569 23.6651 8.68 23.6651C5.43455 23.6651 3.63717 24.2447 2.39541 24.8006C1.73264 25.0973 1 24.6482 1 23.9221V23.6651V6.33333V3.51825C1 3.09172 1.2709 2.71279 1.66621 2.55262C3.22976 1.91912 5.04483 1 8.68 1C12.84 1 15.8718 2.20368 17.6154 2.80552M17.6154 25.4706C17.6154 25.4706 20.52 23.6651 25.32 23.6651C27.8327 23.6651 29.6506 23.9949 30.9008 24.3956C31.7441 24.6658 33 23.9782 33 23.0927C33 17.2952 33 13.0616 33 7.90196M17.6154 25.4706V2.80552M33 2.80552C33 2.80552 33 4.81962 33 7.90196M33 2.80552V7.90196M33 2.80552C33 2.80552 31.9696 2.31949 30.44 1.85177C29.0215 1.41801 27.1736 1 25.32 1C21.4677 1 19.359 2.20368 17.6154 2.80552" stroke="black" stroke-width="2" stroke-linejoin="round"/>
</svg>
