<svg width="19" height="20" viewBox="0 0 19 20" fill="none" xmlns="http://www.w3.org/2000/svg">
<path d="M18.884 18.2646L13.3647 12.7452C14.4115 11.4528 15.0417 9.80976 15.0417 8.02086C15.0417 3.87388 11.6678 0.5 7.52082 0.5C3.37384 0.5 0 3.87388 0 8.02086C0 12.1678 3.37388 15.5417 7.52086 15.5417C9.30976 15.5417 10.9528 14.9115 12.2452 13.8647L17.7646 19.3841C17.9192 19.5386 18.1698 19.5386 18.3244 19.3841L18.8841 18.8244C19.0386 18.6698 19.0386 18.4191 18.884 18.2646ZM7.52086 13.9584C4.24673 13.9584 1.58335 11.295 1.58335 8.02086C1.58335 4.74673 4.24673 2.08335 7.52086 2.08335C10.795 2.08335 13.4584 4.74673 13.4584 8.02086C13.4584 11.295 10.795 13.9584 7.52086 13.9584Z" fill="black"/>
</svg>
