<svg width="8" height="9" viewBox="0 0 8 9" fill="none" xmlns="http://www.w3.org/2000/svg">
<path d="M7.53033 5.22808C7.67098 5.08743 7.75 4.89666 7.75 4.69775C7.75 4.49884 7.67098 4.30807 7.53033 4.16742C7.38968 4.02677 7.19891 3.94775 7 3.94775H4.75V1.69775C4.75 1.49884 4.67098 1.30808 4.53033 1.16742C4.38968 1.02677 4.19891 0.947754 4 0.947754C3.80109 0.947754 3.61032 1.02677 3.46967 1.16742C3.32902 1.30808 3.25 1.49884 3.25 1.69775V3.94775H1C0.801088 3.94775 0.610323 4.02677 0.46967 4.16742C0.329018 4.30807 0.25 4.49884 0.25 4.69775C0.25 4.89666 0.329018 5.08743 0.46967 5.22808C0.610323 5.36873 0.801088 5.44775 1 5.44775H3.25V7.69775C3.25 7.89666 3.32902 8.08743 3.46967 8.22808C3.61032 8.36873 3.80109 8.44775 4 8.44775C4.19891 8.44775 4.38968 8.36873 4.53033 8.22808C4.67098 8.08743 4.75 7.89666 4.75 7.69775V5.44775H7C7.19891 5.44775 7.38968 5.36873 7.53033 5.22808Z" fill="white"/>
</svg>
