<svg xmlns="http://www.w3.org/2000/svg" width="13" height="11" viewBox="0 0 13 11" fill="none">
  <path d="M0.541668 11.0001C0.685327 11.0001 0.823102 10.9474 0.924685 10.8536C1.02627 10.7598 1.08333 10.6327 1.08333 10.5001C1.08419 9.70465 1.42688 8.94205 2.03619 8.37962C2.64549 7.81718 3.47164 7.50085 4.33333 7.50006H7.49125V8.29306C7.49129 8.49081 7.55486 8.68411 7.6739 8.84852C7.79294 9.01293 7.96211 9.14107 8.16004 9.21674C8.35796 9.29241 8.57575 9.31221 8.78587 9.27364C8.99598 9.23507 9.18899 9.13987 9.3405 9.00006L12.525 6.06056C12.8296 5.77927 13.0007 5.39781 13.0007 5.00006C13.0007 4.60231 12.8296 4.22085 12.525 3.93956L9.3405 1.00006C9.18899 0.860253 8.99598 0.765046 8.78587 0.726479C8.57575 0.687911 8.35796 0.707714 8.16004 0.783384C7.96211 0.859054 7.79294 0.987194 7.6739 1.1516C7.55486 1.31601 7.49129 1.50931 7.49125 1.70706V2.50006H4.875C3.58251 2.50139 2.34337 2.97592 1.42944 3.81954C0.515509 4.66317 0.00143528 5.80699 9.53674e-07 7.00006V10.5001C9.53674e-07 10.6327 0.0570688 10.7598 0.158651 10.8536C0.260233 10.9474 0.398008 11.0001 0.541668 11.0001Z" fill="#363B4E"/>
</svg>