<svg xmlns="http://www.w3.org/2000/svg" width="13" height="12" viewBox="0 0 13 12" fill="none">
  <g clip-path="url(#clip0_6161_1869)">
    <path d="M0.541669 12.0001C0.685328 12.0001 0.823103 11.9474 0.924685 11.8536C1.02627 11.7598 1.08333 11.6327 1.08333 11.5001C1.0842 10.7047 1.42688 9.94205 2.03619 9.37962C2.64549 8.81718 3.47165 8.50085 4.33333 8.50006H7.49125V9.29306C7.49129 9.49081 7.55486 9.68411 7.6739 9.84852C7.79294 10.0129 7.96211 10.1411 8.16004 10.2167C8.35796 10.2924 8.57575 10.3122 8.78587 10.2736C8.99598 10.2351 9.18899 10.1399 9.3405 10.0001L12.525 7.06056C12.8296 6.77927 13.0007 6.39781 13.0007 6.00006C13.0007 5.60231 12.8296 5.22085 12.525 4.93956L9.3405 2.00006C9.18899 1.86025 8.99598 1.76505 8.78587 1.72648C8.57575 1.68791 8.35796 1.70771 8.16004 1.78338C7.96211 1.85905 7.79294 1.98719 7.6739 2.1516C7.55486 2.31601 7.49129 2.50931 7.49125 2.70706V3.50006H4.875C3.58251 3.50139 2.34337 3.97592 1.42944 4.81954C0.515511 5.66317 0.00143623 6.80699 2.86102e-06 8.00006V11.5001C2.86102e-06 11.6327 0.0570698 11.7598 0.158652 11.8536C0.260235 11.9474 0.39801 12.0001 0.541669 12.0001ZM8.57458 2.70706L11.759 5.64656C11.8606 5.74032 11.9176 5.86748 11.9176 6.00006C11.9176 6.13264 11.8606 6.2598 11.759 6.35356L8.57458 9.29306V8.00006C8.57458 7.86745 8.51751 7.74028 8.41593 7.64651C8.31435 7.55274 8.17657 7.50006 8.03292 7.50006H4.33333C3.71822 7.49989 3.11015 7.62085 2.54971 7.85485C1.98927 8.08886 1.48935 8.43053 1.08333 8.85706V8.00006C1.08448 7.07213 1.48433 6.1825 2.19516 5.52636C2.90598 4.87021 3.86974 4.50112 4.875 4.50006H8.03292C8.17657 4.50006 8.31435 4.44738 8.41593 4.35361C8.51751 4.25985 8.57458 4.13267 8.57458 4.00006V2.70706Z" fill="#D7D6D6"/>
    <path d="M8.57458 2.70706L11.759 5.64656C11.8606 5.74032 11.9176 5.86748 11.9176 6.00006C11.9176 6.13264 11.8606 6.2598 11.759 6.35356L8.57458 9.29306V8.00006C8.57458 7.86745 8.51751 7.74028 8.41593 7.64651C8.31435 7.55274 8.17657 7.50006 8.03292 7.50006H4.33333C3.71822 7.49989 3.11015 7.62085 2.54971 7.85485C1.98927 8.08886 1.48935 8.43053 1.08333 8.85706V8.00006C1.08448 7.07213 1.48433 6.1825 2.19516 5.52636C2.90598 4.87021 3.86974 4.50112 4.875 4.50006H8.03292C8.17657 4.50006 8.31435 4.44738 8.41593 4.35361C8.51751 4.25985 8.57458 4.13267 8.57458 4.00006V2.70706Z" fill="#D7D6D6"/>
  </g>
  <defs>
    <clipPath id="clip0_6161_1869">
      <rect width="13" height="12" fill="white" transform="matrix(-1 0 0 1 13 0)"/>
    </clipPath>
  </defs>
</svg>