<svg xmlns="http://www.w3.org/2000/svg" width="21" height="29" viewBox="0 0 21 29" fill="none">
  <path d="M2.10699e-05 19.0896V23.4785C2.10699e-05 23.7654 0.243696 24.0001 0.54152 24.0001H10.2046C10.5024 24.0001 10.7461 23.7654 10.7461 23.4785V19.0896C10.7461 19.0896 10.7677 17.7466 9.4194 17.4676C8.42033 17.2616 7.49978 16.9773 7.03139 16.4297H3.712C3.2436 16.9773 2.32576 17.2616 1.32399 17.4676C-0.0216389 17.7492 2.10699e-05 19.0896 2.10699e-05 19.0896Z" fill="#363B4E"/>
  <path d="M19.7296 6.30887C19.7865 6.21499 19.7783 6.09503 19.7107 6.00637C19.5915 5.85512 19.467 5.7143 19.3424 5.58913C18.9932 5.23708 19.291 4.65554 19.7946 4.71031C19.9299 4.72595 20.0707 4.74421 20.2088 4.76507C20.3469 4.78593 20.4823 4.71031 20.5229 4.57992C21.0942 2.85878 21.0427 1.22632 20.9236 0.240577C20.8911 -0.0175923 20.5419 -0.0906101 20.4011 0.133659C19.8379 1.02552 18.384 2.42589 14.6422 3.39859C9.48986 4.73638 7.88976 8.47593 7.40241 10.4031C6.6064 11.1463 5.83206 11.913 5.08208 12.6979C5.06313 12.7162 5.04688 12.7371 5.03064 12.7579H7.15602C7.57298 12.3433 7.99535 11.9338 8.42313 11.5296C15.0077 11.115 18.2161 8.80973 19.7296 6.30887Z" fill="#363B4E"/>
  <path d="M6.35982 13.5715H4.93839H2.91589C2.61806 13.5715 2.37439 13.8062 2.37439 14.0931V15.037C2.37439 15.3239 2.61806 15.5586 2.91589 15.5586H7.8327C8.13052 15.5586 8.3742 15.3239 8.3742 15.037V14.0931C8.3742 13.8062 8.13052 13.5715 7.8327 13.5715H6.35982Z" fill="#363B4E"/>
  <circle cx="12.0422" cy="23.8593" r="4.97067" fill="#5BC5FF"/>
  <path d="M13.9909 22.0494L11.4632 24.6034L10.1088 23.1805C10.0544 23.1206 9.9887 23.0723 9.91553 23.0384C9.84236 23.0045 9.76319 22.9857 9.6827 22.9831C9.6022 22.9805 9.522 22.9942 9.44683 23.0233C9.37165 23.0524 9.30302 23.0964 9.24498 23.1526C9.18693 23.2089 9.14065 23.2763 9.10885 23.3508C9.07705 23.4254 9.06038 23.5056 9.05983 23.5867C9.05927 23.6678 9.07484 23.7483 9.10562 23.8233C9.13639 23.8982 9.18175 23.9663 9.23902 24.0233L10.6308 25.4828C10.7346 25.5957 10.8601 25.6863 10.9996 25.749C11.1392 25.8117 11.2899 25.8453 11.4426 25.8476H11.4625C11.6123 25.8481 11.7606 25.8187 11.8989 25.7609C12.0372 25.7032 12.1628 25.6184 12.2683 25.5113L14.8467 22.9135C14.903 22.8569 14.9477 22.7897 14.9783 22.7156C15.0088 22.6416 15.0245 22.5623 15.0246 22.4821C15.0247 22.402 15.0091 22.3226 14.9788 22.2485C14.9484 22.1744 14.9038 22.1071 14.8476 22.0503C14.7914 21.9936 14.7247 21.9486 14.6512 21.9178C14.5778 21.8871 14.499 21.8712 14.4194 21.8711C14.3399 21.871 14.2611 21.8867 14.1876 21.9173C14.114 21.9479 14.0472 21.9928 13.9909 22.0494Z" fill="white"/>
</svg>