<svg xmlns="http://www.w3.org/2000/svg" width="21" height="29" viewBox="0 0 21 29" fill="none">
  <path d="M2.10699e-05 19.0896V23.4785C2.10699e-05 23.7654 0.243696 24.0001 0.54152 24.0001H10.2046C10.5024 24.0001 10.7461 23.7654 10.7461 23.4785V19.0896C10.7461 19.0896 10.7677 17.7466 9.4194 17.4676C8.42033 17.2616 7.49978 16.9773 7.03139 16.4297H3.712C3.2436 16.9773 2.32576 17.2616 1.32399 17.4676C-0.0216389 17.7492 2.10699e-05 19.0896 2.10699e-05 19.0896Z" fill="#363B4E"/>
  <path d="M19.7296 6.30887C19.7865 6.21499 19.7783 6.09503 19.7107 6.00637C19.5915 5.85512 19.467 5.7143 19.3424 5.58913C18.9932 5.23708 19.291 4.65554 19.7946 4.71031C19.9299 4.72595 20.0707 4.74421 20.2088 4.76507C20.3469 4.78593 20.4823 4.71031 20.5229 4.57992C21.0942 2.85878 21.0427 1.22632 20.9236 0.240577C20.8911 -0.0175923 20.5419 -0.0906101 20.4011 0.133659C19.8379 1.02552 18.384 2.42589 14.6422 3.39859C9.48986 4.73638 7.88976 8.47593 7.40241 10.4031C6.6064 11.1463 5.83206 11.913 5.08208 12.6979C5.06313 12.7162 5.04688 12.7371 5.03064 12.7579H7.15602C7.57298 12.3433 7.99535 11.9338 8.42313 11.5296C15.0077 11.115 18.2161 8.80973 19.7296 6.30887Z" fill="#363B4E"/>
  <path d="M6.35982 13.5715H4.93839H2.91589C2.61806 13.5715 2.37439 13.8062 2.37439 14.0931V15.037C2.37439 15.3239 2.61806 15.5586 2.91589 15.5586H7.8327C8.13052 15.5586 8.3742 15.3239 8.3742 15.037V14.0931C8.3742 13.8062 8.13052 13.5715 7.8327 13.5715H6.35982Z" fill="#363B4E"/>
  <circle cx="12.0422" cy="23.8593" r="4.97067" fill="#FFD749"/>
</svg>