<svg xmlns="http://www.w3.org/2000/svg" width="21" height="24" viewBox="0 0 21 24" fill="none">
  <path d="M2.10698e-05 19.0896V23.4784C2.10698e-05 23.7653 0.243695 24 0.541519 24H10.2046C10.5024 24 10.7461 23.7653 10.7461 23.4784V19.0896C10.7461 19.0896 10.7677 17.7466 9.41938 17.4676C8.42032 17.2616 7.49977 16.9773 7.03138 16.4297H3.71199C3.2436 16.9773 2.32576 17.2616 1.32398 17.4676C-0.0216388 17.7492 2.10698e-05 19.0896 2.10698e-05 19.0896Z" fill="#D7D6D6"/>
  <path d="M19.7296 6.30881C19.7864 6.21493 19.7783 6.09498 19.7106 6.00631C19.5915 5.85506 19.467 5.71424 19.3424 5.58907C18.9931 5.23703 19.291 4.6555 19.7945 4.71026C19.9299 4.72591 20.0707 4.74416 20.2088 4.76502C20.3469 4.78589 20.4823 4.71026 20.5229 4.57987C21.0942 2.85876 21.0427 1.22631 20.9236 0.240575C20.8911 -0.0175922 20.5418 -0.0906092 20.401 0.133657C19.8379 1.02551 18.384 2.42587 14.6422 3.39856C9.48985 4.73634 7.88975 8.47585 7.4024 10.403C6.6064 11.1462 5.83206 11.9129 5.08208 12.6978C5.06313 12.7161 5.04688 12.7369 5.03064 12.7578H7.15602C7.57297 12.3432 7.99534 11.9337 8.42313 11.5295C15.0077 11.1149 18.2161 8.80965 19.7296 6.30881Z" fill="#D7D6D6"/>
  <path d="M6.35982 13.5715H4.93838H2.91589C2.61806 13.5715 2.37439 13.8062 2.37439 14.0931V15.037C2.37439 15.3239 2.61806 15.5586 2.91589 15.5586H7.83269C8.13052 15.5586 8.37419 15.3239 8.37419 15.037V14.0931C8.37419 13.8062 8.13052 13.5715 7.83269 13.5715H6.35982Z" fill="#D7D6D6"/>
</svg>