<svg xmlns="http://www.w3.org/2000/svg" width="19" height="19" viewBox="0 0 19 19" fill="none">
  <path d="M9.5 3.16667C9.29004 3.16667 9.08867 3.08326 8.94021 2.93479C8.79174 2.78633 8.70833 2.58496 8.70833 2.375V0.791667C8.70833 0.581704 8.79174 0.38034 8.94021 0.231874C9.08867 0.0834075 9.29004 0 9.5 0C9.70996 0 9.91133 0.0834075 10.0598 0.231874C10.2083 0.38034 10.2917 0.581704 10.2917 0.791667V2.375C10.2917 2.58496 10.2083 2.78633 10.0598 2.93479C9.91133 3.08326 9.70996 3.16667 9.5 3.16667ZM10.2917 18.2083V16.625C10.2917 16.415 10.2083 16.2137 10.0598 16.0652C9.91133 15.9167 9.70996 15.8333 9.5 15.8333C9.29004 15.8333 9.08867 15.9167 8.94021 16.0652C8.79174 16.2137 8.70833 16.415 8.70833 16.625V18.2083C8.70833 18.4183 8.79174 18.6197 8.94021 18.7681C9.08867 18.9166 9.29004 19 9.5 19C9.70996 19 9.91133 18.9166 10.0598 18.7681C10.2083 18.6197 10.2917 18.4183 10.2917 18.2083ZM3.16667 9.5C3.16667 9.29004 3.08326 9.08867 2.93479 8.94021C2.78633 8.79174 2.58496 8.70833 2.375 8.70833H0.791667C0.581704 8.70833 0.38034 8.79174 0.231874 8.94021C0.0834075 9.08867 0 9.29004 0 9.5C0 9.70996 0.0834075 9.91133 0.231874 10.0598C0.38034 10.2083 0.581704 10.2917 0.791667 10.2917H2.375C2.58496 10.2917 2.78633 10.2083 2.93479 10.0598C3.08326 9.91133 3.16667 9.70996 3.16667 9.5ZM19 9.5C19 9.29004 18.9166 9.08867 18.7681 8.94021C18.6197 8.79174 18.4183 8.70833 18.2083 8.70833H16.625C16.415 8.70833 16.2137 8.79174 16.0652 8.94021C15.9167 9.08867 15.8333 9.29004 15.8333 9.5C15.8333 9.70996 15.9167 9.91133 16.0652 10.0598C16.2137 10.2083 16.415 10.2917 16.625 10.2917H18.2083C18.4183 10.2917 18.6197 10.2083 18.7681 10.0598C18.9166 9.91133 19 9.70996 19 9.5ZM13.7584 3.73271L14.55 2.36233C14.6476 2.18108 14.6707 1.96897 14.6145 1.77097C14.5583 1.57296 14.4271 1.40464 14.2489 1.30168C14.0707 1.19872 13.8594 1.16922 13.6598 1.21943C13.4602 1.26965 13.288 1.39563 13.1797 1.57067L12.388 2.94104C12.283 3.12277 12.2544 3.33879 12.3086 3.54158C12.3628 3.74437 12.4953 3.91734 12.677 4.02246C12.797 4.09268 12.9337 4.12958 13.0728 4.12933C13.2118 4.12925 13.3484 4.09255 13.4688 4.02292C13.5891 3.9533 13.689 3.8532 13.7584 3.73271ZM5.81796 17.4285L6.60963 16.0582C6.70716 15.8769 6.73028 15.6648 6.67406 15.4668C6.61785 15.2688 6.48673 15.1005 6.30851 14.9975C6.13028 14.8946 5.91896 14.8651 5.71935 14.9153C5.51974 14.9655 5.34754 15.0915 5.23925 15.2665L4.44758 16.6369C4.34247 16.8185 4.31379 17.0345 4.36782 17.2372C4.42186 17.44 4.55419 17.613 4.73575 17.7183C4.85586 17.7884 4.99249 17.8253 5.13158 17.8252C5.27053 17.8255 5.4071 17.7892 5.52758 17.72C5.64806 17.6508 5.74821 17.5511 5.81796 17.4309V17.4285ZM4.02087 6.32304C4.12598 6.1414 4.15467 5.92547 4.10064 5.72268C4.0466 5.5199 3.91426 5.34687 3.73271 5.24162L2.36233 4.44996C2.18108 4.35242 1.96897 4.32931 1.77097 4.38552C1.57296 4.44173 1.40464 4.57285 1.30168 4.75108C1.19872 4.9293 1.16922 5.14062 1.21943 5.34023C1.26965 5.53984 1.39563 5.71204 1.57067 5.82033L2.94104 6.612C3.12277 6.71704 3.33879 6.74561 3.54158 6.69142C3.74437 6.63724 3.91734 6.50473 4.02246 6.32304H4.02087ZM17.7167 14.2642C17.7689 14.1743 17.8028 14.0749 17.8166 13.9718C17.8303 13.8687 17.8236 13.7639 17.7969 13.6634C17.7701 13.5629 17.7238 13.4687 17.6606 13.3861C17.5974 13.3035 17.5185 13.2342 17.4285 13.182L16.0582 12.3904C15.8769 12.2928 15.6648 12.2697 15.4668 12.3259C15.2688 12.3821 15.1005 12.5133 14.9975 12.6915C14.8946 12.8697 14.8651 13.081 14.9153 13.2806C14.9655 13.4803 15.0915 13.6525 15.2665 13.7608L16.6369 14.5524C16.757 14.6226 16.8936 14.6595 17.0327 14.6593C17.1717 14.6595 17.3084 14.6231 17.4288 14.5538C17.5493 14.4844 17.6494 14.3846 17.7191 14.2642H17.7167ZM6.32304 4.02087C6.50473 3.91576 6.63724 3.74279 6.69142 3.53999C6.74561 3.3372 6.71704 3.12119 6.612 2.93946L5.82033 1.56908C5.71204 1.39404 5.53984 1.26806 5.34023 1.21785C5.14062 1.16763 4.9293 1.19713 4.75108 1.30009C4.57285 1.40305 4.44173 1.57138 4.38552 1.76938C4.32931 1.96739 4.35242 2.1795 4.44996 2.36075L5.24162 3.73112C5.31111 3.85147 5.41104 3.95141 5.53139 4.02089C5.65173 4.09037 5.78825 4.12696 5.92721 4.12696C6.06624 4.12744 6.20289 4.09082 6.32304 4.02087ZM14.2642 17.7167C14.4458 17.6115 14.5781 17.4384 14.6322 17.2356C14.6862 17.0329 14.6575 16.8169 14.5524 16.6353L13.7608 15.2649C13.6525 15.0899 13.4803 14.9639 13.2806 14.9137C13.081 14.8635 12.8697 14.893 12.6915 14.9959C12.5133 15.0989 12.3821 15.2672 12.3259 15.4652C12.2697 15.6632 12.2928 15.8753 12.3904 16.0566L13.182 17.427C13.2342 17.517 13.3035 17.5958 13.3861 17.659C13.4687 17.7222 13.5629 17.7685 13.6634 17.7953C13.7639 17.822 13.8687 17.8287 13.9718 17.815C14.0749 17.8012 14.1743 17.7673 14.2642 17.7151V17.7167ZM16.0605 6.60963L17.4309 5.81796C17.606 5.70967 17.7319 5.53746 17.7822 5.33786C17.8324 5.13825 17.8029 4.92693 17.6999 4.7487C17.5969 4.57048 17.4286 4.43936 17.2306 4.38314C17.0326 4.32693 16.8205 4.35005 16.6392 4.44758L15.2689 5.23925C15.0938 5.34754 14.9679 5.51974 14.9176 5.71935C14.8674 5.91896 14.8969 6.13028 14.9999 6.30851C15.1028 6.48673 15.2712 6.61785 15.4692 6.67406C15.6672 6.73028 15.8793 6.70716 16.0605 6.60963ZM2.36471 14.55L3.73508 13.7584C3.91012 13.6501 4.0361 13.4779 4.08632 13.2783C4.13654 13.0787 4.10703 12.8673 4.00407 12.6891C3.90111 12.5109 3.73279 12.3798 3.53478 12.3236C3.33678 12.2673 3.12467 12.2905 2.94342 12.388L1.57304 13.1797C1.42213 13.2668 1.30418 13.4013 1.2375 13.5623C1.17081 13.7233 1.15912 13.9018 1.20422 14.0702C1.24932 14.2385 1.34871 14.3872 1.48696 14.4933C1.62521 14.5994 1.79461 14.6569 1.96888 14.6569C2.10696 14.6575 2.24272 14.6214 2.36233 14.5524L2.36471 14.55Z" fill="#363B4E"/>
</svg>