<svg xmlns="http://www.w3.org/2000/svg" width="20" height="20" viewBox="0 0 20 20" fill="none">
  <path d="M7.50001 14.9V5.59172C7.49905 5.4262 7.5474 5.26414 7.6389 5.12621C7.73041 4.98828 7.86091 4.88072 8.01378 4.81724C8.16665 4.75377 8.33496 4.73726 8.49725 4.76982C8.65954 4.80238 8.80846 4.88253 8.92502 5.00005L13.575 9.65838C13.7302 9.81452 13.8174 10.0257 13.8174 10.2459C13.8174 10.466 13.7302 10.6772 13.575 10.8334L8.92502 15.4917C8.80846 15.6092 8.65954 15.6894 8.49725 15.7219C8.33496 15.7545 8.16665 15.738 8.01378 15.6745C7.86091 15.611 7.73041 15.5035 7.6389 15.3656C7.5474 15.2276 7.49905 15.0656 7.50001 14.9Z" fill="white"/>
</svg>