<svg xmlns="http://www.w3.org/2000/svg" width="20" height="20" viewBox="0 0 20 20" fill="none">
  <path d="M12.5 14.9V5.59172C12.5009 5.4262 12.4526 5.26414 12.3611 5.12621C12.2696 4.98828 12.1391 4.88072 11.9862 4.81724C11.8333 4.75377 11.665 4.73726 11.5027 4.76982C11.3405 4.80238 11.1915 4.88253 11.075 5.00005L6.42497 9.65838C6.26976 9.81452 6.18264 10.0257 6.18264 10.2459C6.18264 10.466 6.26976 10.6772 6.42497 10.8334L11.075 15.4917C11.1915 15.6092 11.3405 15.6894 11.5027 15.7219C11.665 15.7545 11.8333 15.738 11.9862 15.6745C12.1391 15.611 12.2696 15.5035 12.3611 15.3656C12.4526 15.2276 12.5009 15.0656 12.5 14.9Z" fill="white"/>
</svg>