<svg width="10" height="10" viewBox="0 0 10 10" fill="none" xmlns="http://www.w3.org/2000/svg">
<path fill-rule="evenodd" clip-rule="evenodd" d="M9.7781 1.28033C10.071 0.987437 10.071 0.512563 9.7781 0.21967C9.48521 -0.0732233 9.01034 -0.0732233 8.71744 0.21967L4.99889 3.93823L1.28033 0.21967C0.987437 -0.0732233 0.512563 -0.0732233 0.21967 0.21967C-0.0732233 0.512563 -0.0732233 0.987437 0.21967 1.28033L3.93823 4.99889L0.21974 8.71737C-0.0731533 9.01027 -0.0731536 9.48514 0.21974 9.77803C0.512633 10.0709 0.987507 10.0709 1.2804 9.77803L4.99889 6.05955L8.71737 9.77803C9.01027 10.0709 9.48514 10.0709 9.77803 9.77803C10.0709 9.48514 10.0709 9.01027 9.77803 8.71737L6.05955 4.99889L9.7781 1.28033Z" fill="#667092"/>
</svg>
