<svg xmlns="http://www.w3.org/2000/svg" width="26" height="20" viewBox="0 0 26 20" fill="none">
  <path fill-rule="evenodd" clip-rule="evenodd" d="M0 1.5C0 0.947715 0.447715 0.5 1 0.5H17C17.5523 0.5 18 0.947715 18 1.5C18 2.05228 17.5523 2.5 17 2.5H1C0.447715 2.5 0 2.05228 0 1.5ZM0 8.5C0 7.94772 0.447715 7.5 1 7.5H17C17.5523 7.5 18 7.94772 18 8.5C18 9.05228 17.5523 9.5 17 9.5H1C0.447715 9.5 0 9.05228 0 8.5ZM20.2929 11.7929C20.6834 11.4024 21.3166 11.4024 21.7071 11.7929L25.4142 15.5L21.7071 19.2071C21.3166 19.5976 20.6834 19.5976 20.2929 19.2071C19.9024 18.8166 19.9024 18.1834 20.2929 17.7929L21.5858 16.5H1C0.447715 16.5 0 16.0523 0 15.5C0 14.9477 0.447715 14.5 1 14.5H21.5858L20.2929 13.2071C19.9024 12.8166 19.9024 12.1834 20.2929 11.7929Z" fill="#363B4E"/>
</svg>