<svg width="19" height="19" viewBox="0 0 19 19" fill="none" xmlns="http://www.w3.org/2000/svg">
<g clip-path="url(#clip0_12625_2779)">
<path d="M17.4166 3.5H13.4583V2C13.4583 1.60217 13.2915 1.22064 12.9946 0.93934C12.6976 0.658035 12.2949 0.5 11.875 0.5H7.12498C6.70505 0.5 6.30233 0.658035 6.00539 0.93934C5.70846 1.22064 5.54165 1.60217 5.54165 2V3.5H1.58331V5H3.16665V16.25C3.16665 16.8467 3.41687 17.419 3.86227 17.841C4.30767 18.2629 4.91176 18.5 5.54165 18.5H13.4583C14.0882 18.5 14.6923 18.2629 15.1377 17.841C15.5831 17.419 15.8333 16.8467 15.8333 16.25V5H17.4166V3.5ZM7.12498 2H11.875V3.5H7.12498V2ZM14.25 16.25C14.25 16.4489 14.1666 16.6397 14.0181 16.7803C13.8696 16.921 13.6683 17 13.4583 17H5.54165C5.33168 17 5.13032 16.921 4.98185 16.7803C4.83339 16.6397 4.74998 16.4489 4.74998 16.25V5H14.25V16.25Z" fill="#ED5E31"/>
<path d="M8.70833 8H7.125V14H8.70833V8Z" fill="#ED5E31"/>
<path d="M11.875 8H10.2916V14H11.875V8Z" fill="#ED5E31"/>
</g>
<defs>
<clipPath id="clip0_12625_2779">
<rect width="19" height="18" fill="white" transform="translate(0 0.5)"/>
</clipPath>
</defs>
</svg>
