<svg xmlns="http://www.w3.org/2000/svg" width="13" height="12" viewBox="0 0 13 12" fill="none">
  <g clip-path="url(#clip0_6161_1870)">
    <path d="M12.4583 12.0001C12.3147 12.0001 12.1769 11.9474 12.0753 11.8536C11.9737 11.7598 11.9167 11.6327 11.9167 11.5001C11.9158 10.7047 11.5731 9.94205 10.9638 9.37962C10.3545 8.81718 9.52835 8.50085 8.66667 8.50006H5.50875V9.29306C5.50871 9.49081 5.44514 9.68411 5.3261 9.84852C5.20706 10.0129 5.03789 10.1411 4.83996 10.2167C4.64204 10.2924 4.42425 10.3122 4.21413 10.2736C4.00402 10.2351 3.81101 10.1399 3.6595 10.0001L0.475045 7.06056C0.170405 6.77927 -0.000732422 6.39781 -0.000732422 6.00006C-0.000732422 5.60231 0.170405 5.22085 0.475045 4.93956L3.6595 2.00006C3.81101 1.86025 4.00402 1.76505 4.21413 1.72648C4.42425 1.68791 4.64204 1.70771 4.83996 1.78338C5.03789 1.85905 5.20706 1.98719 5.3261 2.1516C5.44514 2.31601 5.50871 2.50931 5.50875 2.70706V3.50006H8.125C9.41749 3.50139 10.6566 3.97592 11.5706 4.81954C12.4845 5.66317 12.9986 6.80699 13 8.00006V11.5001C13 11.6327 12.9429 11.7598 12.8413 11.8536C12.7398 11.9474 12.602 12.0001 12.4583 12.0001ZM4.42542 2.70706L1.24096 5.64656C1.13941 5.74032 1.08237 5.86748 1.08237 6.00006C1.08237 6.13264 1.13941 6.2598 1.24096 6.35356L4.42542 9.29306V8.00006C4.42542 7.86745 4.48249 7.74028 4.58407 7.64651C4.68565 7.55274 4.82343 7.50006 4.96708 7.50006H8.66667C9.28178 7.49989 9.88985 7.62085 10.4503 7.85485C11.0107 8.08886 11.5106 8.43053 11.9167 8.85706V8.00006C11.9155 7.07213 11.5157 6.1825 10.8048 5.52636C10.094 4.87021 9.13026 4.50112 8.125 4.50006H4.96708C4.82343 4.50006 4.68565 4.44738 4.58407 4.35361C4.48249 4.25985 4.42542 4.13267 4.42542 4.00006V2.70706Z" fill="#363B4E"/>
    <path d="M4.42542 2.70706L1.24096 5.64656C1.13941 5.74032 1.08237 5.86748 1.08237 6.00006C1.08237 6.13264 1.13941 6.2598 1.24096 6.35356L4.42542 9.29306V8.00006C4.42542 7.86745 4.48249 7.74028 4.58407 7.64651C4.68565 7.55274 4.82343 7.50006 4.96708 7.50006H8.66667C9.28178 7.49989 9.88985 7.62085 10.4503 7.85485C11.0107 8.08886 11.5106 8.43053 11.9167 8.85706V8.00006C11.9155 7.07213 11.5157 6.1825 10.8048 5.52636C10.094 4.87021 9.13026 4.50112 8.125 4.50006H4.96708C4.82343 4.50006 4.68565 4.44738 4.58407 4.35361C4.48249 4.25985 4.42542 4.13267 4.42542 4.00006V2.70706Z" fill="#363B4E"/>
  </g>
  <defs>
    <clipPath id="clip0_6161_1870">
      <rect width="13" height="12" fill="white"/>
    </clipPath>
  </defs>
</svg>