<svg xmlns="http://www.w3.org/2000/svg" width="13" height="11" viewBox="0 0 13 11" fill="none">
  <path d="M12.4591 11.0001C12.3154 11.0001 12.1776 10.9474 12.076 10.8536C11.9745 10.7598 11.9174 10.6327 11.9174 10.5001C11.9165 9.70465 11.5739 8.94205 10.9645 8.37962C10.3552 7.81718 9.52909 7.50085 8.6674 7.50006H5.50948V8.29306C5.50944 8.49081 5.44588 8.68411 5.32684 8.84852C5.20779 9.01293 5.03862 9.14107 4.84069 9.21674C4.64277 9.29241 4.42498 9.31221 4.21487 9.27364C4.00475 9.23507 3.81174 9.13987 3.66023 9.00006L0.475778 6.06056C0.171137 5.77927 0 5.39781 0 5.00006C0 4.60231 0.171137 4.22085 0.475778 3.93956L3.66023 1.00006C3.81174 0.860253 4.00475 0.765046 4.21487 0.726479C4.42498 0.687911 4.64277 0.707714 4.84069 0.783384C5.03862 0.859054 5.20779 0.987194 5.32684 1.1516C5.44588 1.31601 5.50944 1.50931 5.50948 1.70706V2.50006H8.12573C9.41822 2.50139 10.6574 2.97592 11.5713 3.81954C12.4852 4.66317 12.9993 5.80699 13.0007 7.00006V10.5001C13.0007 10.6327 12.9437 10.7598 12.8421 10.8536C12.7405 10.9474 12.6027 11.0001 12.4591 11.0001Z" fill="#363B4E"/>
</svg>